# Blender 5.1.1
# www.blender.org
mtllib sphere.mtl
o Sphere
v 0.000000 1.000000 0.000000
v 0.000000 0.831470 -0.555570
v 0.000000 0.555570 -0.831470
v 0.000000 0.195090 -0.980785
v 0.000000 0.000000 -1.000000
v 0.000000 -0.195090 -0.980785
v 0.000000 -0.555570 -0.831470
v 0.000000 -1.000000 0.000000
v 0.038060 0.980785 -0.191342
v 0.074658 0.923880 -0.375330
v 0.108386 0.831470 -0.544895
v 0.137950 0.707107 -0.693520
v 0.162212 0.555570 -0.815493
v 0.180240 0.382683 -0.906127
v 0.191342 0.195090 -0.961940
v 0.195090 0.000000 -0.980785
v 0.191342 -0.195090 -0.961940
v 0.180240 -0.382683 -0.906127
v 0.162212 -0.555570 -0.815493
v 0.137950 -0.707107 -0.693520
v 0.108386 -0.831470 -0.544895
v 0.074658 -0.923880 -0.375330
v 0.038060 -0.980785 -0.191342
v 0.074658 0.980785 -0.180240
v 0.146447 0.923880 -0.353553
v 0.212608 0.831470 -0.513280
v 0.270598 0.707107 -0.653281
v 0.318190 0.555570 -0.768178
v 0.353553 0.382683 -0.853553
v 0.375330 0.195090 -0.906127
v 0.382683 0.000000 -0.923879
v 0.375330 -0.195090 -0.906127
v 0.353553 -0.382683 -0.853553
v 0.318190 -0.555570 -0.768178
v 0.270598 -0.707107 -0.653281
v 0.212608 -0.831470 -0.513280
v 0.146447 -0.923880 -0.353553
v 0.074658 -0.980785 -0.180240
v 0.108386 0.980785 -0.162212
v 0.212608 0.923880 -0.318190
v 0.308658 0.831470 -0.461940
v 0.392847 0.707107 -0.587938
v 0.461940 0.555570 -0.691342
v 0.513280 0.382683 -0.768178
v 0.544895 0.195090 -0.815493
v 0.555570 0.000000 -0.831469
v 0.544895 -0.195090 -0.815493
v 0.513280 -0.382683 -0.768178
v 0.461940 -0.555570 -0.691342
v 0.392847 -0.707107 -0.587938
v 0.308658 -0.831470 -0.461940
v 0.212608 -0.923880 -0.318190
v 0.108386 -0.980785 -0.162212
v 0.137950 0.980785 -0.137950
v 0.270598 0.923880 -0.270598
v 0.392847 0.831470 -0.392847
v 0.500000 0.707107 -0.500000
v 0.587938 0.555570 -0.587938
v 0.653281 0.382683 -0.653281
v 0.693520 0.195090 -0.693520
v 0.707107 0.000000 -0.707107
v 0.693520 -0.195090 -0.693520
v 0.653281 -0.382683 -0.653281
v 0.587938 -0.555570 -0.587938
v 0.500000 -0.707107 -0.500000
v 0.392847 -0.831470 -0.392847
v 0.270598 -0.923880 -0.270598
v 0.137950 -0.980785 -0.137950
v 0.162212 0.980785 -0.108386
v 0.318190 0.923880 -0.212608
v 0.461940 0.831470 -0.308658
v 0.587938 0.707107 -0.392847
v 0.691342 0.555570 -0.461940
v 0.768178 0.382683 -0.513280
v 0.815493 0.195090 -0.544895
v 0.831470 0.000000 -0.555570
v 0.815493 -0.195090 -0.544895
v 0.768178 -0.382683 -0.513280
v 0.691342 -0.555570 -0.461940
v 0.587938 -0.707107 -0.392847
v 0.461940 -0.831470 -0.308658
v 0.318190 -0.923880 -0.212608
v 0.162212 -0.980785 -0.108386
v 0.180240 0.980785 -0.074658
v 0.353553 0.923880 -0.146447
v 0.513280 0.831470 -0.212607
v 0.653281 0.707107 -0.270598
v 0.768178 0.555570 -0.318190
v 0.853553 0.382683 -0.353553
v 0.906127 0.195090 -0.375330
v 0.923879 0.000000 -0.382683
v 0.906127 -0.195090 -0.375330
v 0.853553 -0.382683 -0.353553
v 0.768178 -0.555570 -0.318190
v 0.653281 -0.707107 -0.270598
v 0.513280 -0.831470 -0.212607
v 0.353553 -0.923880 -0.146447
v 0.180240 -0.980785 -0.074658
v 0.191342 0.980785 -0.038060
v 0.375330 0.923880 -0.074658
v 0.544895 0.831470 -0.108386
v 0.693520 0.707107 -0.137950
v 0.815493 0.555570 -0.162212
v 0.906127 0.382683 -0.180240
v 0.961940 0.195090 -0.191342
v 0.980785 0.000000 -0.195090
v 0.961940 -0.195090 -0.191342
v 0.906127 -0.382683 -0.180240
v 0.815493 -0.555570 -0.162212
v 0.693520 -0.707107 -0.137950
v 0.544895 -0.831470 -0.108386
v 0.375330 -0.923880 -0.074658
v 0.191342 -0.980785 -0.038060
v 0.195090 0.980785 0.000000
v 0.382683 0.923880 0.000000
v 0.555570 0.831470 0.000000
v 0.707107 0.707107 -0.000000
v 0.831469 0.555570 0.000000
v 0.923879 0.382683 -0.000000
v 0.980785 0.195090 0.000000
v 1.000000 0.000000 0.000000
v 0.980785 -0.195090 0.000000
v 0.923879 -0.382683 -0.000000
v 0.831469 -0.555570 0.000000
v 0.707107 -0.707107 -0.000000
v 0.555570 -0.831470 0.000000
v 0.382683 -0.923880 0.000000
v 0.195090 -0.980785 0.000000
v 0.191342 0.980785 0.038060
v 0.375330 0.923880 0.074658
v 0.544895 0.831470 0.108386
v 0.693520 0.707107 0.137950
v 0.815493 0.555570 0.162212
v 0.906127 0.382683 0.180240
v 0.961940 0.195090 0.191342
v 0.980785 0.000000 0.195090
v 0.961940 -0.195090 0.191342
v 0.906127 -0.382683 0.180240
v 0.815493 -0.555570 0.162212
v 0.693520 -0.707107 0.137950
v 0.544895 -0.831470 0.108386
v 0.375330 -0.923880 0.074658
v 0.191342 -0.980785 0.038060
v 0.180240 0.980785 0.074658
v 0.353553 0.923880 0.146447
v 0.513280 0.831470 0.212608
v 0.653281 0.707107 0.270598
v 0.768178 0.555570 0.318190
v 0.853553 0.382683 0.353553
v 0.906127 0.195090 0.375330
v 0.923879 0.000000 0.382683
v 0.906127 -0.195090 0.375330
v 0.853553 -0.382683 0.353553
v 0.768178 -0.555570 0.318190
v 0.653281 -0.707107 0.270598
v 0.513280 -0.831470 0.212608
v 0.353553 -0.923880 0.146447
v 0.180240 -0.980785 0.074658
v 0.162212 0.980785 0.108386
v 0.318190 0.923880 0.212608
v 0.461940 0.831470 0.308658
v 0.587938 0.707107 0.392847
v 0.691341 0.555570 0.461940
v 0.768178 0.382683 0.513280
v 0.815493 0.195090 0.544895
v 0.831469 0.000000 0.555570
v 0.815493 -0.195090 0.544895
v 0.768178 -0.382683 0.513280
v 0.691341 -0.555570 0.461940
v 0.587938 -0.707107 0.392847
v 0.461940 -0.831470 0.308658
v 0.318190 -0.923880 0.212608
v 0.162212 -0.980785 0.108386
v 0.137950 0.980785 0.137950
v 0.270598 0.923880 0.270598
v 0.392847 0.831470 0.392847
v 0.500000 0.707107 0.500000
v 0.587938 0.555570 0.587938
v 0.653281 0.382683 0.653281
v 0.693520 0.195090 0.693520
v 0.707106 0.000000 0.707107
v 0.693520 -0.195090 0.693520
v 0.653281 -0.382683 0.653281
v 0.587938 -0.555570 0.587938
v 0.500000 -0.707107 0.500000
v 0.392847 -0.831470 0.392847
v 0.270598 -0.923880 0.270598
v 0.137950 -0.980785 0.137950
v 0.108386 0.980785 0.162212
v 0.212607 0.923880 0.318190
v 0.308658 0.831470 0.461940
v 0.392847 0.707107 0.587938
v 0.461940 0.555570 0.691342
v 0.513280 0.382683 0.768178
v 0.544895 0.195090 0.815493
v 0.555570 0.000000 0.831469
v 0.544895 -0.195090 0.815493
v 0.513280 -0.382683 0.768178
v 0.461940 -0.555570 0.691342
v 0.392847 -0.707107 0.587938
v 0.308658 -0.831470 0.461940
v 0.212607 -0.923880 0.318190
v 0.108386 -0.980785 0.162212
v 0.074658 0.980785 0.180240
v 0.146447 0.923880 0.353553
v 0.212607 0.831470 0.513280
v 0.270598 0.707107 0.653281
v 0.318189 0.555570 0.768178
v 0.353553 0.382683 0.853553
v 0.375330 0.195090 0.906127
v 0.382683 0.000000 0.923879
v 0.375330 -0.195090 0.906127
v 0.353553 -0.382683 0.853553
v 0.318189 -0.555570 0.768178
v 0.270598 -0.707107 0.653281
v 0.212607 -0.831470 0.513280
v 0.146447 -0.923880 0.353553
v 0.074658 -0.980785 0.180240
v 0.038060 0.980785 0.191342
v 0.074658 0.923880 0.375330
v 0.108386 0.831470 0.544895
v 0.137950 0.707107 0.693520
v 0.162212 0.555570 0.815493
v 0.180240 0.382683 0.906127
v 0.191342 0.195090 0.961939
v 0.195090 0.000000 0.980785
v 0.191342 -0.195090 0.961939
v 0.180240 -0.382683 0.906127
v 0.162212 -0.555570 0.815493
v 0.137950 -0.707107 0.693520
v 0.108386 -0.831470 0.544895
v 0.074658 -0.923880 0.375330
v 0.038060 -0.980785 0.191342
v -0.000000 0.980785 0.195090
v -0.000000 0.923880 0.382683
v -0.000000 0.831470 0.555570
v -0.000000 0.707107 0.707107
v -0.000000 0.555570 0.831469
v 0.000000 0.382683 0.923879
v -0.000000 0.195090 0.980785
v -0.000000 0.000000 0.999999
v -0.000000 -0.195090 0.980785
v 0.000000 -0.382683 0.923879
v -0.000000 -0.555570 0.831469
v -0.000000 -0.707107 0.707107
v -0.000000 -0.831470 0.555570
v -0.000000 -0.923880 0.382683
v -0.000000 -0.980785 0.195090
v -0.038060 0.980785 0.191342
v -0.074658 0.923880 0.375330
v -0.108386 0.831470 0.544895
v -0.137950 0.707107 0.693520
v -0.162212 0.555570 0.815493
v -0.180240 0.382683 0.906127
v -0.191342 0.195090 0.961939
v -0.195091 0.000000 0.980785
v -0.191342 -0.195090 0.961939
v -0.180240 -0.382683 0.906127
v -0.162212 -0.555570 0.815493
v -0.137950 -0.707107 0.693520
v -0.108386 -0.831470 0.544895
v -0.074658 -0.923880 0.375330
v -0.038060 -0.980785 0.191342
v -0.074658 0.980785 0.180240
v -0.146447 0.923880 0.353553
v -0.212608 0.831470 0.513280
v -0.270598 0.707107 0.653281
v -0.318190 0.555570 0.768177
v -0.353553 0.382683 0.853553
v -0.375330 0.195090 0.906127
v -0.382683 0.000000 0.923879
v -0.375330 -0.195090 0.906127
v -0.353553 -0.382683 0.853553
v -0.318190 -0.555570 0.768177
v -0.270598 -0.707107 0.653281
v -0.212608 -0.831470 0.513280
v -0.146447 -0.923880 0.353553
v -0.074658 -0.980785 0.180240
v -0.108386 0.980785 0.162212
v -0.212608 0.923880 0.318190
v -0.308658 0.831470 0.461939
v -0.392847 0.707107 0.587938
v -0.461940 0.555570 0.691341
v -0.513280 0.382683 0.768178
v -0.544895 0.195090 0.815493
v -0.555570 0.000000 0.831469
v -0.544895 -0.195090 0.815493
v -0.513280 -0.382683 0.768178
v -0.461940 -0.555570 0.691341
v -0.392847 -0.707107 0.587938
v -0.308658 -0.831470 0.461939
v -0.212608 -0.923880 0.318190
v -0.108386 -0.980785 0.162212
v -0.137950 0.980785 0.137950
v -0.270598 0.923880 0.270598
v -0.392847 0.831470 0.392847
v -0.500000 0.707107 0.500000
v -0.587938 0.555570 0.587937
v -0.653281 0.382683 0.653281
v -0.693520 0.195090 0.693520
v -0.707106 0.000000 0.707106
v -0.693520 -0.195090 0.693520
v -0.653281 -0.382683 0.653281
v -0.587938 -0.555570 0.587937
v -0.500000 -0.707107 0.500000
v -0.392847 -0.831470 0.392847
v -0.270598 -0.923880 0.270598
v -0.137950 -0.980785 0.137950
v -0.162212 0.980785 0.108386
v -0.318190 0.923880 0.212607
v -0.461940 0.831470 0.308658
v -0.587938 0.707107 0.392847
v -0.691341 0.555570 0.461939
v -0.768177 0.382683 0.513280
v -0.815493 0.195090 0.544895
v -0.831469 0.000000 0.555569
v -0.815493 -0.195090 0.544895
v -0.768177 -0.382683 0.513280
v -0.691341 -0.555570 0.461939
v -0.587938 -0.707107 0.392847
v -0.461940 -0.831470 0.308658
v -0.318190 -0.923880 0.212607
v -0.162212 -0.980785 0.108386
v -0.180240 0.980785 0.074658
v -0.353553 0.923880 0.146447
v -0.513280 0.831470 0.212607
v -0.653281 0.707107 0.270598
v -0.768177 0.555570 0.318189
v -0.853553 0.382683 0.353553
v -0.906127 0.195090 0.375330
v -0.923879 0.000000 0.382683
v -0.906127 -0.195090 0.375330
v -0.853553 -0.382683 0.353553
v -0.768177 -0.555570 0.318189
v -0.653281 -0.707107 0.270598
v -0.513280 -0.831470 0.212607
v -0.353553 -0.923880 0.146447
v -0.180240 -0.980785 0.074658
v -0.191342 0.980785 0.038060
v -0.375330 0.923880 0.074658
v -0.544895 0.831470 0.108386
v -0.693520 0.707107 0.137950
v -0.815493 0.555570 0.162211
v -0.906127 0.382683 0.180240
v -0.961939 0.195090 0.191341
v -0.980784 0.000000 0.195090
v -0.961939 -0.195090 0.191341
v -0.906127 -0.382683 0.180240
v -0.815493 -0.555570 0.162211
v -0.693520 -0.707107 0.137950
v -0.544895 -0.831470 0.108386
v -0.375330 -0.923880 0.074658
v -0.191342 -0.980785 0.038060
v -0.195090 0.980785 -0.000000
v -0.382683 0.923880 -0.000000
v -0.555570 0.831470 -0.000000
v -0.707107 0.707107 -0.000000
v -0.831469 0.555570 -0.000000
v -0.923879 0.382683 -0.000000
v -0.980785 0.195090 -0.000000
v -0.999999 0.000000 -0.000000
v -0.980785 -0.195090 -0.000000
v -0.923879 -0.382683 -0.000000
v -0.831469 -0.555570 -0.000000
v -0.707107 -0.707107 -0.000000
v -0.555570 -0.831470 -0.000000
v -0.382683 -0.923880 -0.000000
v -0.195090 -0.980785 -0.000000
v -0.191342 0.980785 -0.038060
v -0.375330 0.923880 -0.074658
v -0.544895 0.831470 -0.108386
v -0.693520 0.707107 -0.137950
v -0.815493 0.555570 -0.162212
v -0.906127 0.382683 -0.180240
v -0.961939 0.195090 -0.191342
v -0.980784 0.000000 -0.195091
v -0.961939 -0.195090 -0.191342
v -0.906127 -0.382683 -0.180240
v -0.815493 -0.555570 -0.162212
v -0.693520 -0.707107 -0.137950
v -0.544895 -0.831470 -0.108386
v -0.375330 -0.923880 -0.074658
v -0.191342 -0.980785 -0.038060
v -0.180240 0.980785 -0.074658
v -0.353553 0.923880 -0.146447
v -0.513279 0.831470 -0.212607
v -0.653281 0.707107 -0.270598
v -0.768177 0.555570 -0.318190
v -0.853553 0.382683 -0.353553
v -0.906127 0.195090 -0.375330
v -0.923878 0.000000 -0.382683
v -0.906127 -0.195090 -0.375330
v -0.853553 -0.382683 -0.353553
v -0.768177 -0.555570 -0.318190
v -0.653281 -0.707107 -0.270598
v -0.513279 -0.831470 -0.212607
v -0.353553 -0.923880 -0.146447
v -0.180240 -0.980785 -0.074658
v -0.162212 0.980785 -0.108386
v -0.318189 0.923880 -0.212607
v -0.461939 0.831470 -0.308658
v -0.587938 0.707107 -0.392847
v -0.691341 0.555570 -0.461940
v -0.768177 0.382683 -0.513280
v -0.815493 0.195090 -0.544895
v -0.831468 0.000000 -0.555570
v -0.815493 -0.195090 -0.544895
v -0.768177 -0.382683 -0.513280
v -0.691341 -0.555570 -0.461940
v -0.587938 -0.707107 -0.392847
v -0.461939 -0.831470 -0.308658
v -0.318189 -0.923880 -0.212607
v -0.162212 -0.980785 -0.108386
v -0.137950 0.980785 -0.137950
v -0.270598 0.923880 -0.270598
v -0.392847 0.831470 -0.392847
v -0.500000 0.707107 -0.500000
v -0.587937 0.555570 -0.587938
v -0.653281 0.382683 -0.653281
v -0.693519 0.195090 -0.693520
v -0.707106 0.000000 -0.707106
v -0.693519 -0.195090 -0.693520
v -0.653281 -0.382683 -0.653281
v -0.587937 -0.555570 -0.587938
v -0.500000 -0.707107 -0.500000
v -0.392847 -0.831470 -0.392847
v -0.270598 -0.923880 -0.270598
v -0.137950 -0.980785 -0.137950
v -0.108386 0.980785 -0.162212
v -0.212607 0.923880 -0.318190
v -0.308658 0.831470 -0.461939
v -0.392847 0.707107 -0.587938
v -0.461939 0.555570 -0.691341
v -0.513280 0.382683 -0.768177
v -0.544895 0.195090 -0.815493
v -0.555569 0.000000 -0.831469
v -0.544895 -0.195090 -0.815493
v -0.513280 -0.382683 -0.768177
v -0.461939 -0.555570 -0.691341
v -0.392847 -0.707107 -0.587938
v -0.308658 -0.831470 -0.461939
v -0.212607 -0.923880 -0.318190
v -0.108386 -0.980785 -0.162212
v -0.074658 0.980785 -0.180240
v -0.146446 0.923880 -0.353553
v -0.212607 0.831470 -0.513279
v -0.270598 0.707107 -0.653281
v -0.318189 0.555570 -0.768177
v -0.353553 0.382683 -0.853553
v -0.375330 0.195090 -0.906127
v -0.382683 0.000000 -0.923879
v -0.375330 -0.195090 -0.906127
v -0.353553 -0.382683 -0.853553
v -0.318189 -0.555570 -0.768177
v -0.270598 -0.707107 -0.653281
v -0.212607 -0.831470 -0.513279
v -0.146446 -0.923880 -0.353553
v -0.074658 -0.980785 -0.180240
v -0.038060 0.980785 -0.191342
v -0.074658 0.923880 -0.375330
v -0.108386 0.831470 -0.544895
v -0.137950 0.707107 -0.693520
v -0.162211 0.555570 -0.815493
v -0.180240 0.382683 -0.906127
v -0.191341 0.195090 -0.961939
v -0.195090 0.000000 -0.980784
v -0.191341 -0.195090 -0.961939
v -0.180240 -0.382683 -0.906127
v -0.162211 -0.555570 -0.815493
v -0.137950 -0.707107 -0.693520
v -0.108386 -0.831470 -0.544895
v -0.074658 -0.923880 -0.375330
v -0.038060 -0.980785 -0.191342
v 0.000000 0.980785 -0.195090
v 0.000000 0.923880 -0.382683
v 0.000000 0.707107 -0.707107
v 0.000000 0.382683 -0.923879
v 0.000000 -0.382683 -0.923879
v 0.000000 -0.707107 -0.707107
v 0.000000 -0.831470 -0.555570
v 0.000000 -0.923880 -0.382683
v 0.000000 -0.980785 -0.195090
vn 0.0938 -0.2890 -0.9527
vn 0.0464 0.8810 -0.4709
vn 0.0865 -0.4696 -0.8786
vn 0.0624 0.7715 -0.6332
vn 0.0759 -0.6326 -0.7708
vn 0.0759 0.6326 -0.7708
vn 0.0624 -0.7715 -0.6332
vn 0.0865 0.4696 -0.8786
vn 0.0464 -0.8810 -0.4709
vn 0.0938 0.2890 -0.9527
vn 0.0286 -0.9565 -0.2902
vn 0.0975 0.0975 -0.9904
vn 0.0097 0.9951 -0.0980
vn 0.0097 -0.9951 -0.0980
vn 0.0975 -0.0975 -0.9904
vn 0.0286 0.9565 -0.2902
vn 0.0286 0.9951 -0.0942
vn 0.0286 -0.9951 -0.0942
vn 0.2889 -0.0976 -0.9524
vn 0.0846 0.9565 -0.2790
vn 0.2779 -0.2890 -0.9161
vn 0.1374 0.8810 -0.4528
vn 0.2563 -0.4696 -0.8448
vn 0.1847 0.7715 -0.6088
vn 0.2248 -0.6326 -0.7412
vn 0.2248 0.6326 -0.7412
vn 0.1847 -0.7715 -0.6088
vn 0.2563 0.4696 -0.8448
vn 0.1374 -0.8810 -0.4528
vn 0.2779 0.2890 -0.9161
vn 0.0846 -0.9565 -0.2790
vn 0.2889 0.0976 -0.9524
vn 0.3651 0.6326 -0.6831
vn 0.2999 -0.7715 -0.5611
vn 0.4162 0.4696 -0.7786
vn 0.2230 -0.8810 -0.4173
vn 0.4513 0.2890 -0.8443
vn 0.1374 -0.9565 -0.2571
vn 0.4691 0.0975 -0.8777
vn 0.0464 0.9951 -0.0869
vn 0.0464 -0.9951 -0.0869
vn 0.4691 -0.0975 -0.8777
vn 0.1374 0.9565 -0.2571
vn 0.4513 -0.2890 -0.8443
vn 0.2230 0.8810 -0.4173
vn 0.4162 -0.4696 -0.7786
vn 0.2999 0.7715 -0.5611
vn 0.3651 -0.6326 -0.6831
vn 0.6314 -0.0975 -0.7693
vn 0.1850 0.9565 -0.2254
vn 0.6073 -0.2890 -0.7400
vn 0.3002 0.8810 -0.3658
vn 0.5601 -0.4696 -0.6825
vn 0.4036 0.7715 -0.4918
vn 0.4913 -0.6326 -0.5987
vn 0.4913 0.6326 -0.5987
vn 0.4036 -0.7715 -0.4918
vn 0.5601 0.4696 -0.6825
vn 0.3002 -0.8810 -0.3658
vn 0.6073 0.2890 -0.7400
vn 0.1850 -0.9565 -0.2254
vn 0.6314 0.0975 -0.7693
vn 0.0625 0.9951 -0.0761
vn 0.0625 -0.9951 -0.0761
vn 0.4918 -0.7715 -0.4036
vn 0.6825 0.4696 -0.5601
vn 0.3658 -0.8810 -0.3002
vn 0.7400 0.2890 -0.6073
vn 0.2254 -0.9565 -0.1850
vn 0.7693 0.0975 -0.6314
vn 0.0761 0.9951 -0.0625
vn 0.0761 -0.9951 -0.0625
vn 0.7693 -0.0975 -0.6314
vn 0.2254 0.9565 -0.1850
vn 0.7400 -0.2890 -0.6073
vn 0.3658 0.8810 -0.3002
vn 0.6825 -0.4696 -0.5601
vn 0.4918 0.7715 -0.4036
vn 0.5987 -0.6326 -0.4913
vn 0.5987 0.6326 -0.4913
vn 0.8443 -0.2890 -0.4513
vn 0.4173 0.8810 -0.2230
vn 0.7786 -0.4696 -0.4162
vn 0.5611 0.7715 -0.2999
vn 0.6831 -0.6326 -0.3651
vn 0.6831 0.6326 -0.3651
vn 0.5611 -0.7715 -0.2999
vn 0.7786 0.4696 -0.4162
vn 0.4173 -0.8810 -0.2230
vn 0.8443 0.2890 -0.4513
vn 0.2571 -0.9565 -0.1374
vn 0.8777 0.0975 -0.4691
vn 0.0869 0.9951 -0.0464
vn 0.0869 -0.9951 -0.0464
vn 0.8777 -0.0975 -0.4691
vn 0.2571 0.9565 -0.1374
vn 0.4528 -0.8810 -0.1374
vn 0.9161 0.2890 -0.2779
vn 0.2790 -0.9565 -0.0846
vn 0.9524 0.0975 -0.2889
vn 0.0942 0.9951 -0.0286
vn 0.0942 -0.9951 -0.0286
vn 0.9524 -0.0975 -0.2889
vn 0.2790 0.9565 -0.0846
vn 0.9161 -0.2890 -0.2779
vn 0.4528 0.8810 -0.1374
vn 0.8448 -0.4696 -0.2563
vn 0.6088 0.7715 -0.1847
vn 0.7412 -0.6326 -0.2248
vn 0.7412 0.6326 -0.2248
vn 0.6088 -0.7715 -0.1847
vn 0.8448 0.4696 -0.2563
vn 0.4709 0.8810 -0.0464
vn 0.8786 -0.4696 -0.0865
vn 0.6332 0.7715 -0.0624
vn 0.7708 -0.6326 -0.0759
vn 0.7708 0.6326 -0.0759
vn 0.6332 -0.7715 -0.0624
vn 0.8786 0.4696 -0.0865
vn 0.4709 -0.8810 -0.0464
vn 0.9527 0.2890 -0.0938
vn 0.2902 -0.9565 -0.0286
vn 0.9904 0.0975 -0.0975
vn 0.0980 0.9951 -0.0097
vn 0.0980 -0.9951 -0.0097
vn 0.9904 -0.0975 -0.0975
vn 0.2902 0.9565 -0.0286
vn 0.9527 -0.2890 -0.0938
vn 0.9527 0.2890 0.0938
vn 0.2902 -0.9565 0.0286
vn 0.9904 0.0975 0.0976
vn 0.0980 0.9951 0.0097
vn 0.0980 -0.9951 0.0097
vn 0.9904 -0.0975 0.0976
vn 0.2902 0.9565 0.0286
vn 0.9527 -0.2890 0.0938
vn 0.4709 0.8810 0.0464
vn 0.8786 -0.4696 0.0865
vn 0.6332 0.7715 0.0624
vn 0.7708 -0.6326 0.0759
vn 0.7708 0.6326 0.0759
vn 0.6332 -0.7715 0.0624
vn 0.8786 0.4696 0.0865
vn 0.4709 -0.8810 0.0464
vn 0.8448 -0.4696 0.2563
vn 0.6088 0.7715 0.1847
vn 0.7412 -0.6326 0.2248
vn 0.7412 0.6326 0.2248
vn 0.6088 -0.7715 0.1847
vn 0.8448 0.4696 0.2563
vn 0.4528 -0.8810 0.1374
vn 0.9161 0.2890 0.2779
vn 0.2790 -0.9565 0.0846
vn 0.9524 0.0975 0.2889
vn 0.0942 0.9951 0.0286
vn 0.0942 -0.9951 0.0286
vn 0.9524 -0.0975 0.2889
vn 0.2790 0.9565 0.0846
vn 0.9161 -0.2890 0.2779
vn 0.4528 0.8810 0.1374
vn 0.2571 -0.9565 0.1374
vn 0.8777 0.0975 0.4691
vn 0.0869 0.9951 0.0464
vn 0.0869 -0.9951 0.0464
vn 0.8777 -0.0975 0.4691
vn 0.2571 0.9565 0.1374
vn 0.8443 -0.2890 0.4513
vn 0.4173 0.8810 0.2230
vn 0.7786 -0.4696 0.4162
vn 0.5611 0.7715 0.2999
vn 0.6831 -0.6326 0.3651
vn 0.6831 0.6326 0.3651
vn 0.5611 -0.7715 0.2999
vn 0.7786 0.4696 0.4162
vn 0.4173 -0.8810 0.2230
vn 0.8443 0.2890 0.4513
vn 0.4918 0.7715 0.4036
vn 0.5987 -0.6326 0.4913
vn 0.5987 0.6326 0.4913
vn 0.4918 -0.7715 0.4036
vn 0.6825 0.4696 0.5601
vn 0.3658 -0.8810 0.3002
vn 0.7400 0.2890 0.6073
vn 0.2254 -0.9565 0.1850
vn 0.7693 0.0975 0.6314
vn 0.0761 0.9951 0.0625
vn 0.0761 -0.9951 0.0625
vn 0.7693 -0.0975 0.6314
vn 0.2254 0.9565 0.1850
vn 0.7400 -0.2890 0.6073
vn 0.3658 0.8810 0.3002
vn 0.6825 -0.4696 0.5601
vn 0.6314 0.0975 0.7693
vn 0.0625 0.9951 0.0761
vn 0.0625 -0.9951 0.0761
vn 0.6314 -0.0975 0.7693
vn 0.1850 0.9565 0.2254
vn 0.6073 -0.2890 0.7400
vn 0.3002 0.8810 0.3658
vn 0.5601 -0.4696 0.6825
vn 0.4036 0.7715 0.4918
vn 0.4913 -0.6326 0.5987
vn 0.4913 0.6326 0.5987
vn 0.4036 -0.7715 0.4918
vn 0.5601 0.4696 0.6825
vn 0.3002 -0.8810 0.3658
vn 0.6073 0.2890 0.7400
vn 0.1850 -0.9565 0.2254
vn 0.3651 -0.6326 0.6831
vn 0.3651 0.6326 0.6831
vn 0.2999 -0.7715 0.5611
vn 0.4162 0.4696 0.7786
vn 0.2230 -0.8810 0.4173
vn 0.4513 0.2890 0.8443
vn 0.1374 -0.9565 0.2571
vn 0.4691 0.0975 0.8777
vn 0.0464 0.9951 0.0869
vn 0.0464 -0.9951 0.0869
vn 0.4691 -0.0975 0.8777
vn 0.1374 0.9565 0.2571
vn 0.4513 -0.2890 0.8443
vn 0.2230 0.8810 0.4173
vn 0.4162 -0.4696 0.7786
vn 0.2999 0.7715 0.5611
vn 0.0286 -0.9951 0.0942
vn 0.2889 -0.0975 0.9524
vn 0.0846 0.9565 0.2790
vn 0.2779 -0.2890 0.9161
vn 0.1374 0.8810 0.4528
vn 0.2563 -0.4696 0.8448
vn 0.1847 0.7715 0.6088
vn 0.2248 -0.6326 0.7412
vn 0.2248 0.6326 0.7412
vn 0.1847 -0.7715 0.6088
vn 0.2563 0.4696 0.8448
vn 0.1374 -0.8810 0.4528
vn 0.2779 0.2890 0.9161
vn 0.0846 -0.9565 0.2790
vn 0.2889 0.0975 0.9524
vn 0.0286 0.9951 0.0942
vn 0.0624 -0.7715 0.6332
vn 0.0865 0.4696 0.8786
vn 0.0464 -0.8810 0.4709
vn 0.0938 0.2890 0.9527
vn 0.0286 -0.9565 0.2902
vn 0.0975 0.0975 0.9904
vn 0.0097 0.9951 0.0980
vn 0.0097 -0.9951 0.0980
vn 0.0975 -0.0975 0.9904
vn 0.0286 0.9565 0.2902
vn 0.0938 -0.2890 0.9527
vn 0.0464 0.8810 0.4709
vn 0.0865 -0.4696 0.8786
vn 0.0624 0.7715 0.6332
vn 0.0759 -0.6326 0.7708
vn 0.0759 0.6326 0.7708
vn -0.0286 0.9565 0.2902
vn -0.0938 -0.2890 0.9527
vn -0.0464 0.8810 0.4709
vn -0.0865 -0.4696 0.8786
vn -0.0624 0.7715 0.6332
vn -0.0759 -0.6326 0.7708
vn -0.0759 0.6326 0.7708
vn -0.0624 -0.7715 0.6332
vn -0.0865 0.4696 0.8786
vn -0.0464 -0.8810 0.4709
vn -0.0938 0.2890 0.9527
vn -0.0286 -0.9565 0.2902
vn -0.0976 0.0975 0.9904
vn -0.0097 0.9951 0.0980
vn -0.0097 -0.9951 0.0980
vn -0.0976 -0.0975 0.9904
vn -0.2563 0.4696 0.8448
vn -0.1374 -0.8810 0.4528
vn -0.2779 0.2890 0.9161
vn -0.0846 -0.9565 0.2790
vn -0.2889 0.0975 0.9524
vn -0.0286 0.9951 0.0942
vn -0.0286 -0.9951 0.0942
vn -0.2889 -0.0975 0.9524
vn -0.0846 0.9565 0.2790
vn -0.2779 -0.2890 0.9161
vn -0.1374 0.8810 0.4528
vn -0.2563 -0.4696 0.8448
vn -0.1847 0.7715 0.6088
vn -0.2248 -0.6326 0.7412
vn -0.2248 0.6326 0.7412
vn -0.1847 -0.7715 0.6088
vn -0.4513 -0.2890 0.8443
vn -0.2230 0.8810 0.4173
vn -0.4162 -0.4696 0.7786
vn -0.2999 0.7715 0.5611
vn -0.3651 -0.6326 0.6831
vn -0.3651 0.6326 0.6831
vn -0.2999 -0.7715 0.5611
vn -0.4162 0.4696 0.7786
vn -0.2230 -0.8810 0.4173
vn -0.4513 0.2890 0.8443
vn -0.1374 -0.9565 0.2571
vn -0.4691 0.0975 0.8777
vn -0.0464 0.9951 0.0869
vn -0.0464 -0.9951 0.0869
vn -0.4691 -0.0975 0.8777
vn -0.1374 0.9565 0.2571
vn -0.3002 -0.8810 0.3658
vn -0.6073 0.2890 0.7400
vn -0.1850 -0.9565 0.2254
vn -0.6314 0.0975 0.7693
vn -0.0625 0.9951 0.0761
vn -0.0625 -0.9951 0.0761
vn -0.6314 -0.0975 0.7693
vn -0.1850 0.9565 0.2254
vn -0.6073 -0.2890 0.7400
vn -0.3002 0.8810 0.3658
vn -0.5601 -0.4696 0.6825
vn -0.4036 0.7715 0.4918
vn -0.4913 -0.6326 0.5987
vn -0.4913 0.6326 0.5987
vn -0.4036 -0.7715 0.4918
vn -0.5601 0.4696 0.6825
vn -0.3658 0.8810 0.3002
vn -0.6825 -0.4696 0.5601
vn -0.4918 0.7715 0.4036
vn -0.5987 -0.6326 0.4913
vn -0.5987 0.6326 0.4913
vn -0.4918 -0.7715 0.4036
vn -0.6825 0.4696 0.5601
vn -0.3658 -0.8810 0.3002
vn -0.7400 0.2890 0.6073
vn -0.2254 -0.9565 0.1850
vn -0.7693 0.0975 0.6314
vn -0.0761 0.9951 0.0625
vn -0.0761 -0.9951 0.0625
vn -0.7693 -0.0975 0.6314
vn -0.2254 0.9565 0.1850
vn -0.7400 -0.2890 0.6073
vn -0.8443 0.2890 0.4513
vn -0.2571 -0.9565 0.1374
vn -0.8777 0.0975 0.4691
vn -0.0869 0.9951 0.0464
vn -0.0869 -0.9951 0.0464
vn -0.8777 -0.0975 0.4691
vn -0.2571 0.9565 0.1374
vn -0.8443 -0.2890 0.4513
vn -0.4173 0.8810 0.2230
vn -0.7786 -0.4696 0.4162
vn -0.5611 0.7715 0.2999
vn -0.6831 -0.6326 0.3651
vn -0.6831 0.6326 0.3651
vn -0.5611 -0.7715 0.2999
vn -0.7786 0.4696 0.4162
vn -0.4173 -0.8810 0.2230
vn -0.8448 -0.4696 0.2563
vn -0.6088 0.7715 0.1847
vn -0.7412 -0.6326 0.2248
vn -0.7412 0.6326 0.2248
vn -0.6088 -0.7715 0.1847
vn -0.8448 0.4696 0.2563
vn -0.4528 -0.8810 0.1374
vn -0.9161 0.2890 0.2779
vn -0.2790 -0.9565 0.0846
vn -0.9524 0.0975 0.2889
vn -0.0942 0.9951 0.0286
vn -0.0942 -0.9951 0.0286
vn -0.9524 -0.0975 0.2889
vn -0.2790 0.9565 0.0846
vn -0.9161 -0.2890 0.2779
vn -0.4528 0.8810 0.1374
vn -0.2902 -0.9565 0.0286
vn -0.9904 0.0975 0.0975
vn -0.0980 0.9951 0.0097
vn -0.0980 -0.9951 0.0097
vn -0.9904 -0.0975 0.0975
vn -0.2902 0.9565 0.0286
vn -0.9527 -0.2890 0.0938
vn -0.4709 0.8810 0.0464
vn -0.8786 -0.4696 0.0865
vn -0.6332 0.7715 0.0624
vn -0.7708 -0.6326 0.0759
vn -0.7708 0.6326 0.0759
vn -0.6332 -0.7715 0.0624
vn -0.8786 0.4696 0.0865
vn -0.4709 -0.8810 0.0464
vn -0.9527 0.2890 0.0938
vn -0.7708 -0.6326 -0.0759
vn -0.7708 0.6326 -0.0759
vn -0.6332 -0.7715 -0.0624
vn -0.8786 0.4696 -0.0865
vn -0.4709 -0.8810 -0.0464
vn -0.9527 0.2890 -0.0938
vn -0.2902 -0.9565 -0.0286
vn -0.9904 0.0975 -0.0976
vn -0.0980 0.9951 -0.0097
vn -0.0980 -0.9951 -0.0097
vn -0.9904 -0.0975 -0.0976
vn -0.2902 0.9565 -0.0286
vn -0.9527 -0.2890 -0.0938
vn -0.4709 0.8810 -0.0464
vn -0.8786 -0.4696 -0.0865
vn -0.6332 0.7715 -0.0624
vn -0.0942 0.9951 -0.0286
vn -0.0942 -0.9951 -0.0286
vn -0.9524 -0.0975 -0.2889
vn -0.2790 0.9565 -0.0846
vn -0.9161 -0.2890 -0.2779
vn -0.4528 0.8810 -0.1374
vn -0.8448 -0.4696 -0.2563
vn -0.6088 0.7715 -0.1847
vn -0.7412 -0.6326 -0.2248
vn -0.7412 0.6326 -0.2248
vn -0.6088 -0.7715 -0.1847
vn -0.8448 0.4696 -0.2563
vn -0.4528 -0.8810 -0.1374
vn -0.9161 0.2890 -0.2779
vn -0.2790 -0.9565 -0.0846
vn -0.9524 0.0975 -0.2889
vn -0.6831 0.6326 -0.3651
vn -0.5611 -0.7715 -0.2999
vn -0.7786 0.4696 -0.4162
vn -0.4173 -0.8810 -0.2231
vn -0.8443 0.2890 -0.4513
vn -0.2571 -0.9565 -0.1374
vn -0.8777 0.0975 -0.4691
vn -0.0869 0.9951 -0.0464
vn -0.0869 -0.9951 -0.0464
vn -0.8777 -0.0975 -0.4691
vn -0.2571 0.9565 -0.1374
vn -0.8443 -0.2890 -0.4513
vn -0.4173 0.8810 -0.2231
vn -0.7786 -0.4696 -0.4162
vn -0.5611 0.7715 -0.2999
vn -0.6831 -0.6326 -0.3651
vn -0.7693 -0.0975 -0.6314
vn -0.2254 0.9565 -0.1850
vn -0.7400 -0.2890 -0.6073
vn -0.3658 0.8810 -0.3002
vn -0.6825 -0.4696 -0.5601
vn -0.4918 0.7715 -0.4036
vn -0.5987 -0.6326 -0.4913
vn -0.5987 0.6326 -0.4913
vn -0.4918 -0.7715 -0.4036
vn -0.6825 0.4696 -0.5601
vn -0.3658 -0.8810 -0.3002
vn -0.7400 0.2890 -0.6073
vn -0.2254 -0.9565 -0.1850
vn -0.7693 0.0975 -0.6314
vn -0.0761 0.9951 -0.0625
vn -0.0761 -0.9951 -0.0625
vn -0.4036 -0.7715 -0.4918
vn -0.5601 0.4696 -0.6825
vn -0.3002 -0.8810 -0.3658
vn -0.6073 0.2890 -0.7400
vn -0.1850 -0.9565 -0.2254
vn -0.6314 0.0975 -0.7693
vn -0.0625 0.9951 -0.0761
vn -0.0625 -0.9951 -0.0761
vn -0.6314 -0.0975 -0.7693
vn -0.1850 0.9565 -0.2254
vn -0.6073 -0.2890 -0.7400
vn -0.3002 0.8810 -0.3658
vn -0.5601 -0.4696 -0.6825
vn -0.4036 0.7715 -0.4918
vn -0.4913 -0.6326 -0.5987
vn -0.4913 0.6326 -0.5987
vn -0.1374 0.9565 -0.2571
vn -0.4513 -0.2890 -0.8443
vn -0.2230 0.8810 -0.4173
vn -0.4162 -0.4696 -0.7786
vn -0.2999 0.7715 -0.5611
vn -0.3651 -0.6326 -0.6831
vn -0.3651 0.6326 -0.6831
vn -0.2999 -0.7715 -0.5611
vn -0.4162 0.4696 -0.7786
vn -0.2230 -0.8810 -0.4173
vn -0.4513 0.2890 -0.8443
vn -0.1374 -0.9565 -0.2571
vn -0.4691 0.0975 -0.8777
vn -0.0464 0.9951 -0.0869
vn -0.0464 -0.9951 -0.0869
vn -0.4691 -0.0975 -0.8777
vn -0.2563 0.4696 -0.8448
vn -0.1374 -0.8810 -0.4528
vn -0.2779 0.2890 -0.9161
vn -0.0846 -0.9565 -0.2790
vn -0.2889 0.0975 -0.9524
vn -0.0286 0.9951 -0.0942
vn -0.0286 -0.9951 -0.0942
vn -0.2889 -0.0975 -0.9524
vn -0.0846 0.9565 -0.2790
vn -0.2779 -0.2890 -0.9161
vn -0.1374 0.8810 -0.4528
vn -0.2563 -0.4696 -0.8448
vn -0.1847 0.7715 -0.6088
vn -0.2248 -0.6326 -0.7412
vn -0.2248 0.6326 -0.7412
vn -0.1847 -0.7715 -0.6088
vn -0.0938 -0.2890 -0.9527
vn -0.0464 0.8810 -0.4709
vn -0.0865 -0.4696 -0.8786
vn -0.0624 0.7715 -0.6332
vn -0.0759 -0.6326 -0.7708
vn -0.0759 0.6326 -0.7708
vn -0.0624 -0.7715 -0.6332
vn -0.0865 0.4696 -0.8786
vn -0.0464 -0.8810 -0.4709
vn -0.0938 0.2890 -0.9527
vn -0.0286 -0.9565 -0.2902
vn -0.0976 0.0975 -0.9904
vn -0.0097 0.9951 -0.0980
vn -0.0097 -0.9951 -0.0980
vn -0.0976 -0.0975 -0.9904
vn -0.0286 0.9565 -0.2902
vt 0.750000 0.375000
vt 0.750000 0.437500
vt 0.718750 0.437500
vt 0.718750 0.375000
vt 0.750000 0.812500
vt 0.750000 0.875000
vt 0.718750 0.875000
vt 0.718750 0.812500
vt 0.750000 0.312500
vt 0.718750 0.312500
vt 0.750000 0.750000
vt 0.718750 0.750000
vt 0.750000 0.250000
vt 0.718750 0.250000
vt 0.750000 0.687500
vt 0.718750 0.687500
vt 0.750000 0.187500
vt 0.718750 0.187500
vt 0.750000 0.625000
vt 0.718750 0.625000
vt 0.750000 0.125000
vt 0.718750 0.125000
vt 0.750000 0.562500
vt 0.718750 0.562500
vt 0.750000 0.062500
vt 0.718750 0.062500
vt 0.750000 0.500000
vt 0.718750 0.500000
vt 0.750000 0.937500
vt 0.734375 1.000000
vt 0.718750 0.937500
vt 0.734375 0.000000
vt 0.703125 1.000000
vt 0.687500 0.937500
vt 0.703125 0.000000
vt 0.687500 0.062500
vt 0.687500 0.500000
vt 0.687500 0.437500
vt 0.687500 0.875000
vt 0.687500 0.375000
vt 0.687500 0.812500
vt 0.687500 0.312500
vt 0.687500 0.750000
vt 0.687500 0.250000
vt 0.687500 0.687500
vt 0.687500 0.187500
vt 0.687500 0.625000
vt 0.687500 0.125000
vt 0.687500 0.562500
vt 0.656250 0.750000
vt 0.656250 0.687500
vt 0.656250 0.250000
vt 0.656250 0.187500
vt 0.656250 0.625000
vt 0.656250 0.125000
vt 0.656250 0.562500
vt 0.656250 0.062500
vt 0.656250 0.500000
vt 0.671875 1.000000
vt 0.656250 0.937500
vt 0.671875 0.000000
vt 0.656250 0.437500
vt 0.656250 0.875000
vt 0.656250 0.375000
vt 0.656250 0.812500
vt 0.656250 0.312500
vt 0.625000 0.500000
vt 0.625000 0.437500
vt 0.625000 0.937500
vt 0.625000 0.875000
vt 0.625000 0.375000
vt 0.625000 0.812500
vt 0.625000 0.312500
vt 0.625000 0.750000
vt 0.625000 0.250000
vt 0.625000 0.687500
vt 0.625000 0.187500
vt 0.625000 0.625000
vt 0.625000 0.125000
vt 0.625000 0.562500
vt 0.625000 0.062500
vt 0.640625 1.000000
vt 0.640625 0.000000
vt 0.593750 0.250000
vt 0.593750 0.187500
vt 0.593750 0.687500
vt 0.593750 0.625000
vt 0.593750 0.125000
vt 0.593750 0.562500
vt 0.593750 0.062500
vt 0.593750 0.500000
vt 0.609375 1.000000
vt 0.593750 0.937500
vt 0.609375 0.000000
vt 0.593750 0.437500
vt 0.593750 0.875000
vt 0.593750 0.375000
vt 0.593750 0.812500
vt 0.593750 0.312500
vt 0.593750 0.750000
vt 0.562500 0.437500
vt 0.562500 0.375000
vt 0.562500 0.875000
vt 0.562500 0.812500
vt 0.562500 0.312500
vt 0.562500 0.750000
vt 0.562500 0.250000
vt 0.562500 0.687500
vt 0.562500 0.187500
vt 0.562500 0.625000
vt 0.562500 0.125000
vt 0.562500 0.562500
vt 0.562500 0.062500
vt 0.562500 0.500000
vt 0.578125 1.000000
vt 0.562500 0.937500
vt 0.578125 0.000000
vt 0.531250 0.187500
vt 0.531250 0.125000
vt 0.531250 0.625000
vt 0.531250 0.562500
vt 0.531250 0.062500
vt 0.531250 0.500000
vt 0.546875 1.000000
vt 0.531250 0.937500
vt 0.546875 0.000000
vt 0.531250 0.437500
vt 0.531250 0.875000
vt 0.531250 0.375000
vt 0.531250 0.812500
vt 0.531250 0.312500
vt 0.531250 0.750000
vt 0.531250 0.250000
vt 0.531250 0.687500
vt 0.500000 0.875000
vt 0.500000 0.812500
vt 0.500000 0.375000
vt 0.500000 0.312500
vt 0.500000 0.750000
vt 0.500000 0.250000
vt 0.500000 0.687500
vt 0.500000 0.187500
vt 0.500000 0.625000
vt 0.500000 0.125000
vt 0.500000 0.562500
vt 0.500000 0.062500
vt 0.500000 0.500000
vt 0.515625 1.000000
vt 0.500000 0.937500
vt 0.515625 0.000000
vt 0.500000 0.437500
vt 0.468750 0.625000
vt 0.468750 0.562500
vt 0.468750 0.125000
vt 0.468750 0.062500
vt 0.468750 0.500000
vt 0.484375 1.000000
vt 0.468750 0.937500
vt 0.484375 0.000000
vt 0.468750 0.437500
vt 0.468750 0.875000
vt 0.468750 0.375000
vt 0.468750 0.812500
vt 0.468750 0.312500
vt 0.468750 0.750000
vt 0.468750 0.250000
vt 0.468750 0.687500
vt 0.468750 0.187500
vt 0.437500 0.375000
vt 0.437500 0.312500
vt 0.437500 0.812500
vt 0.437500 0.750000
vt 0.437500 0.250000
vt 0.437500 0.687500
vt 0.437500 0.187500
vt 0.437500 0.625000
vt 0.437500 0.125000
vt 0.437500 0.562500
vt 0.437500 0.062500
vt 0.437500 0.500000
vt 0.453125 1.000000
vt 0.437500 0.937500
vt 0.453125 0.000000
vt 0.437500 0.437500
vt 0.437500 0.875000
vt 0.406250 0.125000
vt 0.406250 0.062500
vt 0.406250 0.562500
vt 0.406250 0.500000
vt 0.421875 1.000000
vt 0.406250 0.937500
vt 0.421875 0.000000
vt 0.406250 0.437500
vt 0.406250 0.875000
vt 0.406250 0.375000
vt 0.406250 0.812500
vt 0.406250 0.312500
vt 0.406250 0.750000
vt 0.406250 0.250000
vt 0.406250 0.687500
vt 0.406250 0.187500
vt 0.406250 0.625000
vt 0.375000 0.812500
vt 0.375000 0.750000
vt 0.375000 0.312500
vt 0.375000 0.250000
vt 0.375000 0.687500
vt 0.375000 0.187500
vt 0.375000 0.625000
vt 0.375000 0.125000
vt 0.375000 0.562500
vt 0.375000 0.062500
vt 0.375000 0.500000
vt 0.390625 1.000000
vt 0.375000 0.937500
vt 0.390625 0.000000
vt 0.375000 0.437500
vt 0.375000 0.875000
vt 0.375000 0.375000
vt 0.343750 0.562500
vt 0.343750 0.500000
vt 0.359375 1.000000
vt 0.343750 0.937500
vt 0.359375 0.000000
vt 0.343750 0.062500
vt 0.343750 0.437500
vt 0.343750 0.875000
vt 0.343750 0.375000
vt 0.343750 0.812500
vt 0.343750 0.312500
vt 0.343750 0.750000
vt 0.343750 0.250000
vt 0.343750 0.687500
vt 0.343750 0.187500
vt 0.343750 0.625000
vt 0.343750 0.125000
vt 0.312500 0.312500
vt 0.312500 0.250000
vt 0.312500 0.750000
vt 0.312500 0.687500
vt 0.312500 0.187500
vt 0.312500 0.625000
vt 0.312500 0.125000
vt 0.312500 0.562500
vt 0.312500 0.062500
vt 0.312500 0.500000
vt 0.328125 1.000000
vt 0.312500 0.937500
vt 0.328125 0.000000
vt 0.312500 0.437500
vt 0.312500 0.875000
vt 0.312500 0.375000
vt 0.312500 0.812500
vt 0.296875 0.000000
vt 0.281250 0.062500
vt 0.281250 0.500000
vt 0.281250 0.437500
vt 0.281250 0.937500
vt 0.281250 0.875000
vt 0.281250 0.375000
vt 0.281250 0.812500
vt 0.281250 0.312500
vt 0.281250 0.750000
vt 0.281250 0.250000
vt 0.281250 0.687500
vt 0.281250 0.187500
vt 0.281250 0.625000
vt 0.281250 0.125000
vt 0.281250 0.562500
vt 0.296875 1.000000
vt 0.250000 0.250000
vt 0.250000 0.187500
vt 0.250000 0.687500
vt 0.250000 0.625000
vt 0.250000 0.125000
vt 0.250000 0.562500
vt 0.250000 0.062500
vt 0.250000 0.500000
vt 0.265625 1.000000
vt 0.250000 0.937500
vt 0.265625 0.000000
vt 0.250000 0.437500
vt 0.250000 0.875000
vt 0.250000 0.375000
vt 0.250000 0.812500
vt 0.250000 0.312500
vt 0.250000 0.750000
vt 0.218750 0.937500
vt 0.218750 0.875000
vt 0.218750 0.437500
vt 0.218750 0.375000
vt 0.218750 0.812500
vt 0.218750 0.312500
vt 0.218750 0.750000
vt 0.218750 0.250000
vt 0.218750 0.687500
vt 0.218750 0.187500
vt 0.218750 0.625000
vt 0.218750 0.125000
vt 0.218750 0.562500
vt 0.218750 0.062500
vt 0.218750 0.500000
vt 0.234375 1.000000
vt 0.234375 0.000000
vt 0.187500 0.687500
vt 0.187500 0.625000
vt 0.187500 0.187500
vt 0.187500 0.125000
vt 0.187500 0.562500
vt 0.187500 0.062500
vt 0.187500 0.500000
vt 0.203125 1.000000
vt 0.187500 0.937500
vt 0.203125 0.000000
vt 0.187500 0.437500
vt 0.187500 0.875000
vt 0.187500 0.375000
vt 0.187500 0.812500
vt 0.187500 0.312500
vt 0.187500 0.750000
vt 0.187500 0.250000
vt 0.156250 0.437500
vt 0.156250 0.375000
vt 0.156250 0.875000
vt 0.156250 0.812500
vt 0.156250 0.312500
vt 0.156250 0.750000
vt 0.156250 0.250000
vt 0.156250 0.687500
vt 0.156250 0.187500
vt 0.156250 0.625000
vt 0.156250 0.125000
vt 0.156250 0.562500
vt 0.156250 0.062500
vt 0.156250 0.500000
vt 0.171875 1.000000
vt 0.156250 0.937500
vt 0.171875 0.000000
vt 0.125000 0.187500
vt 0.125000 0.125000
vt 0.125000 0.625000
vt 0.125000 0.562500
vt 0.125000 0.062500
vt 0.125000 0.500000
vt 0.140625 1.000000
vt 0.125000 0.937500
vt 0.140625 0.000000
vt 0.125000 0.437500
vt 0.125000 0.875000
vt 0.125000 0.375000
vt 0.125000 0.812500
vt 0.125000 0.312500
vt 0.125000 0.750000
vt 0.125000 0.250000
vt 0.125000 0.687500
vt 0.093750 0.875000
vt 0.093750 0.812500
vt 0.093750 0.375000
vt 0.093750 0.312500
vt 0.093750 0.750000
vt 0.093750 0.250000
vt 0.093750 0.687500
vt 0.093750 0.187500
vt 0.093750 0.625000
vt 0.093750 0.125000
vt 0.093750 0.562500
vt 0.093750 0.062500
vt 0.093750 0.500000
vt 0.109375 1.000000
vt 0.093750 0.937500
vt 0.109375 0.000000
vt 0.093750 0.437500
vt 0.062500 0.625000
vt 0.062500 0.562500
vt 0.062500 0.125000
vt 0.062500 0.062500
vt 0.062500 0.500000
vt 0.078125 1.000000
vt 0.062500 0.937500
vt 0.078125 0.000000
vt 0.062500 0.437500
vt 0.062500 0.875000
vt 0.062500 0.375000
vt 0.062500 0.812500
vt 0.062500 0.312500
vt 0.062500 0.750000
vt 0.062500 0.250000
vt 0.062500 0.687500
vt 0.062500 0.187500
vt 0.031250 0.375000
vt 0.031250 0.312500
vt 0.031250 0.812500
vt 0.031250 0.750000
vt 0.031250 0.250000
vt 0.031250 0.687500
vt 0.031250 0.187500
vt 0.031250 0.625000
vt 0.031250 0.125000
vt 0.031250 0.562500
vt 0.031250 0.062500
vt 0.031250 0.500000
vt 0.046875 1.000000
vt 0.031250 0.937500
vt 0.046875 0.000000
vt 0.031250 0.437500
vt 0.031250 0.875000
vt 0.000000 0.125000
vt 0.000000 0.062500
vt 0.000000 0.562500
vt 0.000000 0.500000
vt 0.015625 1.000000
vt 0.000000 0.937500
vt 0.015625 0.000000
vt 0.000000 0.437500
vt 0.000000 0.875000
vt 0.000000 0.375000
vt 0.000000 0.812500
vt 0.000000 0.312500
vt 0.000000 0.750000
vt 0.000000 0.250000
vt 0.000000 0.687500
vt 0.000000 0.187500
vt 0.000000 0.625000
vt 1.000000 0.250000
vt 1.000000 0.312500
vt 0.968750 0.312500
vt 0.968750 0.250000
vt 1.000000 0.687500
vt 1.000000 0.750000
vt 0.968750 0.750000
vt 0.968750 0.687500
vt 1.000000 0.187500
vt 0.968750 0.187500
vt 1.000000 0.625000
vt 0.968750 0.625000
vt 1.000000 0.125000
vt 0.968750 0.125000
vt 1.000000 0.562500
vt 0.968750 0.562500
vt 1.000000 0.062500
vt 0.968750 0.062500
vt 1.000000 0.500000
vt 0.968750 0.500000
vt 1.000000 0.937500
vt 0.984375 1.000000
vt 0.968750 0.937500
vt 0.984375 0.000000
vt 1.000000 0.437500
vt 0.968750 0.437500
vt 1.000000 0.875000
vt 0.968750 0.875000
vt 1.000000 0.375000
vt 0.968750 0.375000
vt 1.000000 0.812500
vt 0.968750 0.812500
vt 0.953125 1.000000
vt 0.937500 0.937500
vt 0.953125 0.000000
vt 0.937500 0.062500
vt 0.937500 0.500000
vt 0.937500 0.437500
vt 0.937500 0.875000
vt 0.937500 0.375000
vt 0.937500 0.812500
vt 0.937500 0.312500
vt 0.937500 0.750000
vt 0.937500 0.250000
vt 0.937500 0.687500
vt 0.937500 0.187500
vt 0.937500 0.625000
vt 0.937500 0.125000
vt 0.937500 0.562500
vt 0.906250 0.750000
vt 0.906250 0.687500
vt 0.906250 0.250000
vt 0.906250 0.187500
vt 0.906250 0.625000
vt 0.906250 0.125000
vt 0.906250 0.562500
vt 0.906250 0.062500
vt 0.906250 0.500000
vt 0.921875 1.000000
vt 0.906250 0.937500
vt 0.921875 0.000000
vt 0.906250 0.437500
vt 0.906250 0.875000
vt 0.906250 0.375000
vt 0.906250 0.812500
vt 0.906250 0.312500
vt 0.875000 0.500000
vt 0.875000 0.437500
vt 0.875000 0.937500
vt 0.875000 0.875000
vt 0.875000 0.375000
vt 0.875000 0.812500
vt 0.875000 0.312500
vt 0.875000 0.750000
vt 0.875000 0.250000
vt 0.875000 0.687500
vt 0.875000 0.187500
vt 0.875000 0.625000
vt 0.875000 0.125000
vt 0.875000 0.562500
vt 0.875000 0.062500
vt 0.890625 1.000000
vt 0.890625 0.000000
vt 0.843750 0.250000
vt 0.843750 0.187500
vt 0.843750 0.687500
vt 0.843750 0.625000
vt 0.843750 0.125000
vt 0.843750 0.562500
vt 0.843750 0.062500
vt 0.843750 0.500000
vt 0.859375 1.000000
vt 0.843750 0.937500
vt 0.859375 0.000000
vt 0.843750 0.437500
vt 0.843750 0.875000
vt 0.843750 0.375000
vt 0.843750 0.812500
vt 0.843750 0.312500
vt 0.843750 0.750000
vt 0.812500 0.937500
vt 0.812500 0.875000
vt 0.812500 0.437500
vt 0.812500 0.375000
vt 0.812500 0.812500
vt 0.812500 0.312500
vt 0.812500 0.750000
vt 0.812500 0.250000
vt 0.812500 0.687500
vt 0.812500 0.187500
vt 0.812500 0.625000
vt 0.812500 0.125000
vt 0.812500 0.562500
vt 0.812500 0.062500
vt 0.812500 0.500000
vt 0.828125 1.000000
vt 0.828125 0.000000
vt 0.781250 0.687500
vt 0.781250 0.625000
vt 0.781250 0.187500
vt 0.781250 0.125000
vt 0.781250 0.562500
vt 0.781250 0.062500
vt 0.781250 0.500000
vt 0.796875 1.000000
vt 0.781250 0.937500
vt 0.796875 0.000000
vt 0.781250 0.437500
vt 0.781250 0.875000
vt 0.781250 0.375000
vt 0.781250 0.812500
vt 0.781250 0.312500
vt 0.781250 0.750000
vt 0.781250 0.250000
vt 0.765625 1.000000
vt 0.765625 0.000000
s 0
f 478/1/1 6/2/1 17/3/1 18/4/1
f 2/5/2 475/6/2 10/7/2 11/8/2
f 7/9/3 478/1/3 18/4/3 19/10/3
f 476/11/4 2/5/4 11/8/4 12/12/4
f 479/13/5 7/9/5 19/10/5 20/14/5
f 3/15/6 476/11/6 12/12/6 13/16/6
f 480/17/7 479/13/7 20/14/7 21/18/7
f 477/19/8 3/15/8 13/16/8 14/20/8
f 481/21/9 480/17/9 21/18/9 22/22/9
f 4/23/10 477/19/10 14/20/10 15/24/10
f 482/25/11 481/21/11 22/22/11 23/26/11
f 5/27/12 4/23/12 15/24/12 16/28/12
f 474/29/13 1/30/13 9/31/13
f 8/32/14 482/25/14 23/26/14
f 6/2/15 5/27/15 16/28/15 17/3/15
f 475/6/16 474/29/16 9/31/16 10/7/16
f 9/31/17 1/33/17 24/34/17
f 8/35/18 23/26/18 38/36/18
f 17/3/19 16/28/19 31/37/19 32/38/19
f 10/7/20 9/31/20 24/34/20 25/39/20
f 18/4/21 17/3/21 32/38/21 33/40/21
f 11/8/22 10/7/22 25/39/22 26/41/22
f 19/10/23 18/4/23 33/40/23 34/42/23
f 12/12/24 11/8/24 26/41/24 27/43/24
f 20/14/25 19/10/25 34/42/25 35/44/25
f 13/16/26 12/12/26 27/43/26 28/45/26
f 21/18/27 20/14/27 35/44/27 36/46/27
f 14/20/28 13/16/28 28/45/28 29/47/28
f 22/22/29 21/18/29 36/46/29 37/48/29
f 15/24/30 14/20/30 29/47/30 30/49/30
f 23/26/31 22/22/31 37/48/31 38/36/31
f 16/28/32 15/24/32 30/49/32 31/37/32
f 28/45/33 27/43/33 42/50/33 43/51/33
f 36/46/34 35/44/34 50/52/34 51/53/34
f 29/47/35 28/45/35 43/51/35 44/54/35
f 37/48/36 36/46/36 51/53/36 52/55/36
f 30/49/37 29/47/37 44/54/37 45/56/37
f 38/36/38 37/48/38 52/55/38 53/57/38
f 31/37/39 30/49/39 45/56/39 46/58/39
f 24/34/40 1/59/40 39/60/40
f 8/61/41 38/36/41 53/57/41
f 32/38/42 31/37/42 46/58/42 47/62/42
f 25/39/43 24/34/43 39/60/43 40/63/43
f 33/40/44 32/38/44 47/62/44 48/64/44
f 26/41/45 25/39/45 40/63/45 41/65/45
f 34/42/46 33/40/46 48/64/46 49/66/46
f 27/43/47 26/41/47 41/65/47 42/50/47
f 35/44/48 34/42/48 49/66/48 50/52/48
f 47/62/49 46/58/49 61/67/49 62/68/49
f 40/63/50 39/60/50 54/69/50 55/70/50
f 48/64/51 47/62/51 62/68/51 63/71/51
f 41/65/52 40/63/52 55/70/52 56/72/52
f 49/66/53 48/64/53 63/71/53 64/73/53
f 42/50/54 41/65/54 56/72/54 57/74/54
f 50/52/55 49/66/55 64/73/55 65/75/55
f 43/51/56 42/50/56 57/74/56 58/76/56
f 51/53/57 50/52/57 65/75/57 66/77/57
f 44/54/58 43/51/58 58/76/58 59/78/58
f 52/55/59 51/53/59 66/77/59 67/79/59
f 45/56/60 44/54/60 59/78/60 60/80/60
f 53/57/61 52/55/61 67/79/61 68/81/61
f 46/58/62 45/56/62 60/80/62 61/67/62
f 39/60/63 1/82/63 54/69/63
f 8/83/64 53/57/64 68/81/64
f 66/77/65 65/75/65 80/84/65 81/85/65
f 59/78/66 58/76/66 73/86/66 74/87/66
f 67/79/67 66/77/67 81/85/67 82/88/67
f 60/80/68 59/78/68 74/87/68 75/89/68
f 68/81/69 67/79/69 82/88/69 83/90/69
f 61/67/70 60/80/70 75/89/70 76/91/70
f 54/69/71 1/92/71 69/93/71
f 8/94/72 68/81/72 83/90/72
f 62/68/73 61/67/73 76/91/73 77/95/73
f 55/70/74 54/69/74 69/93/74 70/96/74
f 63/71/75 62/68/75 77/95/75 78/97/75
f 56/72/76 55/70/76 70/96/76 71/98/76
f 64/73/77 63/71/77 78/97/77 79/99/77
f 57/74/78 56/72/78 71/98/78 72/100/78
f 65/75/79 64/73/79 79/99/79 80/84/79
f 58/76/80 57/74/80 72/100/80 73/86/80
f 78/97/81 77/95/81 92/101/81 93/102/81
f 71/98/82 70/96/82 85/103/82 86/104/82
f 79/99/83 78/97/83 93/102/83 94/105/83
f 72/100/84 71/98/84 86/104/84 87/106/84
f 80/84/85 79/99/85 94/105/85 95/107/85
f 73/86/86 72/100/86 87/106/86 88/108/86
f 81/85/87 80/84/87 95/107/87 96/109/87
f 74/87/88 73/86/88 88/108/88 89/110/88
f 82/88/89 81/85/89 96/109/89 97/111/89
f 75/89/90 74/87/90 89/110/90 90/112/90
f 83/90/91 82/88/91 97/111/91 98/113/91
f 76/91/92 75/89/92 90/112/92 91/114/92
f 69/93/93 1/115/93 84/116/93
f 8/117/94 83/90/94 98/113/94
f 77/95/95 76/91/95 91/114/95 92/101/95
f 70/96/96 69/93/96 84/116/96 85/103/96
f 97/111/97 96/109/97 111/118/97 112/119/97
f 90/112/98 89/110/98 104/120/98 105/121/98
f 98/113/99 97/111/99 112/119/99 113/122/99
f 91/114/100 90/112/100 105/121/100 106/123/100
f 84/116/101 1/124/101 99/125/101
f 8/126/102 98/113/102 113/122/102
f 92/101/103 91/114/103 106/123/103 107/127/103
f 85/103/104 84/116/104 99/125/104 100/128/104
f 93/102/105 92/101/105 107/127/105 108/129/105
f 86/104/106 85/103/106 100/128/106 101/130/106
f 94/105/107 93/102/107 108/129/107 109/131/107
f 87/106/108 86/104/108 101/130/108 102/132/108
f 95/107/109 94/105/109 109/131/109 110/133/109
f 88/108/110 87/106/110 102/132/110 103/134/110
f 96/109/111 95/107/111 110/133/111 111/118/111
f 89/110/112 88/108/112 103/134/112 104/120/112
f 101/130/113 100/128/113 115/135/113 116/136/113
f 109/131/114 108/129/114 123/137/114 124/138/114
f 102/132/115 101/130/115 116/136/115 117/139/115
f 110/133/116 109/131/116 124/138/116 125/140/116
f 103/134/117 102/132/117 117/139/117 118/141/117
f 111/118/118 110/133/118 125/140/118 126/142/118
f 104/120/119 103/134/119 118/141/119 119/143/119
f 112/119/120 111/118/120 126/142/120 127/144/120
f 105/121/121 104/120/121 119/143/121 120/145/121
f 113/122/122 112/119/122 127/144/122 128/146/122
f 106/123/123 105/121/123 120/145/123 121/147/123
f 99/125/124 1/148/124 114/149/124
f 8/150/125 113/122/125 128/146/125
f 107/127/126 106/123/126 121/147/126 122/151/126
f 100/128/127 99/125/127 114/149/127 115/135/127
f 108/129/128 107/127/128 122/151/128 123/137/128
f 120/145/129 119/143/129 134/152/129 135/153/129
f 128/146/130 127/144/130 142/154/130 143/155/130
f 121/147/131 120/145/131 135/153/131 136/156/131
f 114/149/132 1/157/132 129/158/132
f 8/159/133 128/146/133 143/155/133
f 122/151/134 121/147/134 136/156/134 137/160/134
f 115/135/135 114/149/135 129/158/135 130/161/135
f 123/137/136 122/151/136 137/160/136 138/162/136
f 116/136/137 115/135/137 130/161/137 131/163/137
f 124/138/138 123/137/138 138/162/138 139/164/138
f 117/139/139 116/136/139 131/163/139 132/165/139
f 125/140/140 124/138/140 139/164/140 140/166/140
f 118/141/141 117/139/141 132/165/141 133/167/141
f 126/142/142 125/140/142 140/166/142 141/168/142
f 119/143/143 118/141/143 133/167/143 134/152/143
f 127/144/144 126/142/144 141/168/144 142/154/144
f 139/164/145 138/162/145 153/169/145 154/170/145
f 132/165/146 131/163/146 146/171/146 147/172/146
f 140/166/147 139/164/147 154/170/147 155/173/147
f 133/167/148 132/165/148 147/172/148 148/174/148
f 141/168/149 140/166/149 155/173/149 156/175/149
f 134/152/150 133/167/150 148/174/150 149/176/150
f 142/154/151 141/168/151 156/175/151 157/177/151
f 135/153/152 134/152/152 149/176/152 150/178/152
f 143/155/153 142/154/153 157/177/153 158/179/153
f 136/156/154 135/153/154 150/178/154 151/180/154
f 129/158/155 1/181/155 144/182/155
f 8/183/156 143/155/156 158/179/156
f 137/160/157 136/156/157 151/180/157 152/184/157
f 130/161/158 129/158/158 144/182/158 145/185/158
f 138/162/159 137/160/159 152/184/159 153/169/159
f 131/163/160 130/161/160 145/185/160 146/171/160
f 158/179/161 157/177/161 172/186/161 173/187/161
f 151/180/162 150/178/162 165/188/162 166/189/162
f 144/182/163 1/190/163 159/191/163
f 8/192/164 158/179/164 173/187/164
f 152/184/165 151/180/165 166/189/165 167/193/165
f 145/185/166 144/182/166 159/191/166 160/194/166
f 153/169/167 152/184/167 167/193/167 168/195/167
f 146/171/168 145/185/168 160/194/168 161/196/168
f 154/170/169 153/169/169 168/195/169 169/197/169
f 147/172/170 146/171/170 161/196/170 162/198/170
f 155/173/171 154/170/171 169/197/171 170/199/171
f 148/174/172 147/172/172 162/198/172 163/200/172
f 156/175/173 155/173/173 170/199/173 171/201/173
f 149/176/174 148/174/174 163/200/174 164/202/174
f 157/177/175 156/175/175 171/201/175 172/186/175
f 150/178/176 149/176/176 164/202/176 165/188/176
f 162/198/177 161/196/177 176/203/177 177/204/177
f 170/199/178 169/197/178 184/205/178 185/206/178
f 163/200/179 162/198/179 177/204/179 178/207/179
f 171/201/180 170/199/180 185/206/180 186/208/180
f 164/202/181 163/200/181 178/207/181 179/209/181
f 172/186/182 171/201/182 186/208/182 187/210/182
f 165/188/183 164/202/183 179/209/183 180/211/183
f 173/187/184 172/186/184 187/210/184 188/212/184
f 166/189/185 165/188/185 180/211/185 181/213/185
f 159/191/186 1/214/186 174/215/186
f 8/216/187 173/187/187 188/212/187
f 167/193/188 166/189/188 181/213/188 182/217/188
f 160/194/189 159/191/189 174/215/189 175/218/189
f 168/195/190 167/193/190 182/217/190 183/219/190
f 161/196/191 160/194/191 175/218/191 176/203/191
f 169/197/192 168/195/192 183/219/192 184/205/192
f 181/213/193 180/211/193 195/220/193 196/221/193
f 174/215/194 1/222/194 189/223/194
f 8/224/195 188/212/195 203/225/195
f 182/217/196 181/213/196 196/221/196 197/226/196
f 175/218/197 174/215/197 189/223/197 190/227/197
f 183/219/198 182/217/198 197/226/198 198/228/198
f 176/203/199 175/218/199 190/227/199 191/229/199
f 184/205/200 183/219/200 198/228/200 199/230/200
f 177/204/201 176/203/201 191/229/201 192/231/201
f 185/206/202 184/205/202 199/230/202 200/232/202
f 178/207/203 177/204/203 192/231/203 193/233/203
f 186/208/204 185/206/204 200/232/204 201/234/204
f 179/209/205 178/207/205 193/233/205 194/235/205
f 187/210/206 186/208/206 201/234/206 202/236/206
f 180/211/207 179/209/207 194/235/207 195/220/207
f 188/212/208 187/210/208 202/236/208 203/225/208
f 200/232/209 199/230/209 214/237/209 215/238/209
f 193/233/210 192/231/210 207/239/210 208/240/210
f 201/234/211 200/232/211 215/238/211 216/241/211
f 194/235/212 193/233/212 208/240/212 209/242/212
f 202/236/213 201/234/213 216/241/213 217/243/213
f 195/220/214 194/235/214 209/242/214 210/244/214
f 203/225/215 202/236/215 217/243/215 218/245/215
f 196/221/216 195/220/216 210/244/216 211/246/216
f 189/223/217 1/247/217 204/248/217
f 8/249/218 203/225/218 218/245/218
f 197/226/219 196/221/219 211/246/219 212/250/219
f 190/227/220 189/223/220 204/248/220 205/251/220
f 198/228/221 197/226/221 212/250/221 213/252/221
f 191/229/222 190/227/222 205/251/222 206/253/222
f 199/230/223 198/228/223 213/252/223 214/237/223
f 192/231/224 191/229/224 206/253/224 207/239/224
f 8/254/225 218/245/225 233/255/225
f 212/250/226 211/246/226 226/256/226 227/257/226
f 205/251/227 204/248/227 219/258/227 220/259/227
f 213/252/228 212/250/228 227/257/228 228/260/228
f 206/253/229 205/251/229 220/259/229 221/261/229
f 214/237/230 213/252/230 228/260/230 229/262/230
f 207/239/231 206/253/231 221/261/231 222/263/231
f 215/238/232 214/237/232 229/262/232 230/264/232
f 208/240/233 207/239/233 222/263/233 223/265/233
f 216/241/234 215/238/234 230/264/234 231/266/234
f 209/242/235 208/240/235 223/265/235 224/267/235
f 217/243/236 216/241/236 231/266/236 232/268/236
f 210/244/237 209/242/237 224/267/237 225/269/237
f 218/245/238 217/243/238 232/268/238 233/255/238
f 211/246/239 210/244/239 225/269/239 226/256/239
f 204/248/240 1/270/240 219/258/240
f 231/266/241 230/264/241 245/271/241 246/272/241
f 224/267/242 223/265/242 238/273/242 239/274/242
f 232/268/243 231/266/243 246/272/243 247/275/243
f 225/269/244 224/267/244 239/274/244 240/276/244
f 233/255/245 232/268/245 247/275/245 248/277/245
f 226/256/246 225/269/246 240/276/246 241/278/246
f 219/258/247 1/279/247 234/280/247
f 8/281/248 233/255/248 248/277/248
f 227/257/249 226/256/249 241/278/249 242/282/249
f 220/259/250 219/258/250 234/280/250 235/283/250
f 228/260/251 227/257/251 242/282/251 243/284/251
f 221/261/252 220/259/252 235/283/252 236/285/252
f 229/262/253 228/260/253 243/284/253 244/286/253
f 222/263/254 221/261/254 236/285/254 237/287/254
f 230/264/255 229/262/255 244/286/255 245/271/255
f 223/265/256 222/263/256 237/287/256 238/273/256
f 235/283/257 234/280/257 249/288/257 250/289/257
f 243/284/258 242/282/258 257/290/258 258/291/258
f 236/285/259 235/283/259 250/289/259 251/292/259
f 244/286/260 243/284/260 258/291/260 259/293/260
f 237/287/261 236/285/261 251/292/261 252/294/261
f 245/271/262 244/286/262 259/293/262 260/295/262
f 238/273/263 237/287/263 252/294/263 253/296/263
f 246/272/264 245/271/264 260/295/264 261/297/264
f 239/274/265 238/273/265 253/296/265 254/298/265
f 247/275/266 246/272/266 261/297/266 262/299/266
f 240/276/267 239/274/267 254/298/267 255/300/267
f 248/277/268 247/275/268 262/299/268 263/301/268
f 241/278/269 240/276/269 255/300/269 256/302/269
f 234/280/270 1/303/270 249/288/270
f 8/304/271 248/277/271 263/301/271
f 242/282/272 241/278/272 256/302/272 257/290/272
f 254/298/273 253/296/273 268/305/273 269/306/273
f 262/299/274 261/297/274 276/307/274 277/308/274
f 255/300/275 254/298/275 269/306/275 270/309/275
f 263/301/276 262/299/276 277/308/276 278/310/276
f 256/302/277 255/300/277 270/309/277 271/311/277
f 249/288/278 1/312/278 264/313/278
f 8/314/279 263/301/279 278/310/279
f 257/290/280 256/302/280 271/311/280 272/315/280
f 250/289/281 249/288/281 264/313/281 265/316/281
f 258/291/282 257/290/282 272/315/282 273/317/282
f 251/292/283 250/289/283 265/316/283 266/318/283
f 259/293/284 258/291/284 273/317/284 274/319/284
f 252/294/285 251/292/285 266/318/285 267/320/285
f 260/295/286 259/293/286 274/319/286 275/321/286
f 253/296/287 252/294/287 267/320/287 268/305/287
f 261/297/288 260/295/288 275/321/288 276/307/288
f 273/317/289 272/315/289 287/322/289 288/323/289
f 266/318/290 265/316/290 280/324/290 281/325/290
f 274/319/291 273/317/291 288/323/291 289/326/291
f 267/320/292 266/318/292 281/325/292 282/327/292
f 275/321/293 274/319/293 289/326/293 290/328/293
f 268/305/294 267/320/294 282/327/294 283/329/294
f 276/307/295 275/321/295 290/328/295 291/330/295
f 269/306/296 268/305/296 283/329/296 284/331/296
f 277/308/297 276/307/297 291/330/297 292/332/297
f 270/309/298 269/306/298 284/331/298 285/333/298
f 278/310/299 277/308/299 292/332/299 293/334/299
f 271/311/300 270/309/300 285/333/300 286/335/300
f 264/313/301 1/336/301 279/337/301
f 8/338/302 278/310/302 293/334/302
f 272/315/303 271/311/303 286/335/303 287/322/303
f 265/316/304 264/313/304 279/337/304 280/324/304
f 292/332/305 291/330/305 306/339/305 307/340/305
f 285/333/306 284/331/306 299/341/306 300/342/306
f 293/334/307 292/332/307 307/340/307 308/343/307
f 286/335/308 285/333/308 300/342/308 301/344/308
f 279/337/309 1/345/309 294/346/309
f 8/347/310 293/334/310 308/343/310
f 287/322/311 286/335/311 301/344/311 302/348/311
f 280/324/312 279/337/312 294/346/312 295/349/312
f 288/323/313 287/322/313 302/348/313 303/350/313
f 281/325/314 280/324/314 295/349/314 296/351/314
f 289/326/315 288/323/315 303/350/315 304/352/315
f 282/327/316 281/325/316 296/351/316 297/353/316
f 290/328/317 289/326/317 304/352/317 305/354/317
f 283/329/318 282/327/318 297/353/318 298/355/318
f 291/330/319 290/328/319 305/354/319 306/339/319
f 284/331/320 283/329/320 298/355/320 299/341/320
f 296/351/321 295/349/321 310/356/321 311/357/321
f 304/352/322 303/350/322 318/358/322 319/359/322
f 297/353/323 296/351/323 311/357/323 312/360/323
f 305/354/324 304/352/324 319/359/324 320/361/324
f 298/355/325 297/353/325 312/360/325 313/362/325
f 306/339/326 305/354/326 320/361/326 321/363/326
f 299/341/327 298/355/327 313/362/327 314/364/327
f 307/340/328 306/339/328 321/363/328 322/365/328
f 300/342/329 299/341/329 314/364/329 315/366/329
f 308/343/330 307/340/330 322/365/330 323/367/330
f 301/344/331 300/342/331 315/366/331 316/368/331
f 294/346/332 1/369/332 309/370/332
f 8/371/333 308/343/333 323/367/333
f 302/348/334 301/344/334 316/368/334 317/372/334
f 295/349/335 294/346/335 309/370/335 310/356/335
f 303/350/336 302/348/336 317/372/336 318/358/336
f 315/366/337 314/364/337 329/373/337 330/374/337
f 323/367/338 322/365/338 337/375/338 338/376/338
f 316/368/339 315/366/339 330/374/339 331/377/339
f 309/370/340 1/378/340 324/379/340
f 8/380/341 323/367/341 338/376/341
f 317/372/342 316/368/342 331/377/342 332/381/342
f 310/356/343 309/370/343 324/379/343 325/382/343
f 318/358/344 317/372/344 332/381/344 333/383/344
f 311/357/345 310/356/345 325/382/345 326/384/345
f 319/359/346 318/358/346 333/383/346 334/385/346
f 312/360/347 311/357/347 326/384/347 327/386/347
f 320/361/348 319/359/348 334/385/348 335/387/348
f 313/362/349 312/360/349 327/386/349 328/388/349
f 321/363/350 320/361/350 335/387/350 336/389/350
f 314/364/351 313/362/351 328/388/351 329/373/351
f 322/365/352 321/363/352 336/389/352 337/375/352
f 334/385/353 333/383/353 348/390/353 349/391/353
f 327/386/354 326/384/354 341/392/354 342/393/354
f 335/387/355 334/385/355 349/391/355 350/394/355
f 328/388/356 327/386/356 342/393/356 343/395/356
f 336/389/357 335/387/357 350/394/357 351/396/357
f 329/373/358 328/388/358 343/395/358 344/397/358
f 337/375/359 336/389/359 351/396/359 352/398/359
f 330/374/360 329/373/360 344/397/360 345/399/360
f 338/376/361 337/375/361 352/398/361 353/400/361
f 331/377/362 330/374/362 345/399/362 346/401/362
f 324/379/363 1/402/363 339/403/363
f 8/404/364 338/376/364 353/400/364
f 332/381/365 331/377/365 346/401/365 347/405/365
f 325/382/366 324/379/366 339/403/366 340/406/366
f 333/383/367 332/381/367 347/405/367 348/390/367
f 326/384/368 325/382/368 340/406/368 341/392/368
f 353/400/369 352/398/369 367/407/369 368/408/369
f 346/401/370 345/399/370 360/409/370 361/410/370
f 339/403/371 1/411/371 354/412/371
f 8/413/372 353/400/372 368/408/372
f 347/405/373 346/401/373 361/410/373 362/414/373
f 340/406/374 339/403/374 354/412/374 355/415/374
f 348/390/375 347/405/375 362/414/375 363/416/375
f 341/392/376 340/406/376 355/415/376 356/417/376
f 349/391/377 348/390/377 363/416/377 364/418/377
f 342/393/378 341/392/378 356/417/378 357/419/378
f 350/394/379 349/391/379 364/418/379 365/420/379
f 343/395/380 342/393/380 357/419/380 358/421/380
f 351/396/381 350/394/381 365/420/381 366/422/381
f 344/397/382 343/395/382 358/421/382 359/423/382
f 352/398/383 351/396/383 366/422/383 367/407/383
f 345/399/384 344/397/384 359/423/384 360/409/384
f 365/424/385 364/425/385 379/426/385 380/427/385
f 358/428/386 357/429/386 372/430/386 373/431/386
f 366/432/387 365/424/387 380/427/387 381/433/387
f 359/434/388 358/428/388 373/431/388 374/435/388
f 367/436/389 366/432/389 381/433/389 382/437/389
f 360/438/390 359/434/390 374/435/390 375/439/390
f 368/440/391 367/436/391 382/437/391 383/441/391
f 361/442/392 360/438/392 375/439/392 376/443/392
f 354/444/393 1/445/393 369/446/393
f 8/447/394 368/440/394 383/441/394
f 362/448/395 361/442/395 376/443/395 377/449/395
f 355/450/396 354/444/396 369/446/396 370/451/396
f 363/452/397 362/448/397 377/449/397 378/453/397
f 356/454/398 355/450/398 370/451/398 371/455/398
f 364/425/399 363/452/399 378/453/399 379/426/399
f 357/429/400 356/454/400 371/455/400 372/430/400
f 369/446/401 1/456/401 384/457/401
f 8/458/402 383/441/402 398/459/402
f 377/449/403 376/443/403 391/460/403 392/461/403
f 370/451/404 369/446/404 384/457/404 385/462/404
f 378/453/405 377/449/405 392/461/405 393/463/405
f 371/455/406 370/451/406 385/462/406 386/464/406
f 379/426/407 378/453/407 393/463/407 394/465/407
f 372/430/408 371/455/408 386/464/408 387/466/408
f 380/427/409 379/426/409 394/465/409 395/467/409
f 373/431/410 372/430/410 387/466/410 388/468/410
f 381/433/411 380/427/411 395/467/411 396/469/411
f 374/435/412 373/431/412 388/468/412 389/470/412
f 382/437/413 381/433/413 396/469/413 397/471/413
f 375/439/414 374/435/414 389/470/414 390/472/414
f 383/441/415 382/437/415 397/471/415 398/459/415
f 376/443/416 375/439/416 390/472/416 391/460/416
f 388/468/417 387/466/417 402/473/417 403/474/417
f 396/469/418 395/467/418 410/475/418 411/476/418
f 389/470/419 388/468/419 403/474/419 404/477/419
f 397/471/420 396/469/420 411/476/420 412/478/420
f 390/472/421 389/470/421 404/477/421 405/479/421
f 398/459/422 397/471/422 412/478/422 413/480/422
f 391/460/423 390/472/423 405/479/423 406/481/423
f 384/457/424 1/482/424 399/483/424
f 8/484/425 398/459/425 413/480/425
f 392/461/426 391/460/426 406/481/426 407/485/426
f 385/462/427 384/457/427 399/483/427 400/486/427
f 393/463/428 392/461/428 407/485/428 408/487/428
f 386/464/429 385/462/429 400/486/429 401/488/429
f 394/465/430 393/463/430 408/487/430 409/489/430
f 387/466/431 386/464/431 401/488/431 402/473/431
f 395/467/432 394/465/432 409/489/432 410/475/432
f 407/485/433 406/481/433 421/490/433 422/491/433
f 400/486/434 399/483/434 414/492/434 415/493/434
f 408/487/435 407/485/435 422/491/435 423/494/435
f 401/488/436 400/486/436 415/493/436 416/495/436
f 409/489/437 408/487/437 423/494/437 424/496/437
f 402/473/438 401/488/438 416/495/438 417/497/438
f 410/475/439 409/489/439 424/496/439 425/498/439
f 403/474/440 402/473/440 417/497/440 418/499/440
f 411/476/441 410/475/441 425/498/441 426/500/441
f 404/477/442 403/474/442 418/499/442 419/501/442
f 412/478/443 411/476/443 426/500/443 427/502/443
f 405/479/444 404/477/444 419/501/444 420/503/444
f 413/480/445 412/478/445 427/502/445 428/504/445
f 406/481/446 405/479/446 420/503/446 421/490/446
f 399/483/447 1/505/447 414/492/447
f 8/506/448 413/480/448 428/504/448
f 426/500/449 425/498/449 440/507/449 441/508/449
f 419/501/450 418/499/450 433/509/450 434/510/450
f 427/502/451 426/500/451 441/508/451 442/511/451
f 420/503/452 419/501/452 434/510/452 435/512/452
f 428/504/453 427/502/453 442/511/453 443/513/453
f 421/490/454 420/503/454 435/512/454 436/514/454
f 414/492/455 1/515/455 429/516/455
f 8/517/456 428/504/456 443/513/456
f 422/491/457 421/490/457 436/514/457 437/518/457
f 415/493/458 414/492/458 429/516/458 430/519/458
f 423/494/459 422/491/459 437/518/459 438/520/459
f 416/495/460 415/493/460 430/519/460 431/521/460
f 424/496/461 423/494/461 438/520/461 439/522/461
f 417/497/462 416/495/462 431/521/462 432/523/462
f 425/498/463 424/496/463 439/522/463 440/507/463
f 418/499/464 417/497/464 432/523/464 433/509/464
f 430/519/465 429/516/465 444/524/465 445/525/465
f 438/520/466 437/518/466 452/526/466 453/527/466
f 431/521/467 430/519/467 445/525/467 446/528/467
f 439/522/468 438/520/468 453/527/468 454/529/468
f 432/523/469 431/521/469 446/528/469 447/530/469
f 440/507/470 439/522/470 454/529/470 455/531/470
f 433/509/471 432/523/471 447/530/471 448/532/471
f 441/508/472 440/507/472 455/531/472 456/533/472
f 434/510/473 433/509/473 448/532/473 449/534/473
f 442/511/474 441/508/474 456/533/474 457/535/474
f 435/512/475 434/510/475 449/534/475 450/536/475
f 443/513/476 442/511/476 457/535/476 458/537/476
f 436/514/477 435/512/477 450/536/477 451/538/477
f 429/516/478 1/539/478 444/524/478
f 8/540/479 443/513/479 458/537/479
f 437/518/480 436/514/480 451/538/480 452/526/480
f 449/534/481 448/532/481 463/541/481 464/542/481
f 457/535/482 456/533/482 471/543/482 472/544/482
f 450/536/483 449/534/483 464/542/483 465/545/483
f 458/537/484 457/535/484 472/544/484 473/546/484
f 451/538/485 450/536/485 465/545/485 466/547/485
f 444/524/486 1/548/486 459/549/486
f 8/550/487 458/537/487 473/546/487
f 452/526/488 451/538/488 466/547/488 467/551/488
f 445/525/489 444/524/489 459/549/489 460/552/489
f 453/527/490 452/526/490 467/551/490 468/553/490
f 446/528/491 445/525/491 460/552/491 461/554/491
f 454/529/492 453/527/492 468/553/492 469/555/492
f 447/530/493 446/528/493 461/554/493 462/556/493
f 455/531/494 454/529/494 469/555/494 470/557/494
f 448/532/495 447/530/495 462/556/495 463/541/495
f 456/533/496 455/531/496 470/557/496 471/543/496
f 468/553/497 467/551/497 6/2/497 478/1/497
f 461/554/498 460/552/498 475/6/498 2/5/498
f 469/555/499 468/553/499 478/1/499 7/9/499
f 462/556/500 461/554/500 2/5/500 476/11/500
f 470/557/501 469/555/501 7/9/501 479/13/501
f 463/541/502 462/556/502 476/11/502 3/15/502
f 471/543/503 470/557/503 479/13/503 480/17/503
f 464/542/504 463/541/504 3/15/504 477/19/504
f 472/544/505 471/543/505 480/17/505 481/21/505
f 465/545/506 464/542/506 477/19/506 4/23/506
f 473/546/507 472/544/507 481/21/507 482/25/507
f 466/547/508 465/545/508 4/23/508 5/27/508
f 459/549/509 1/558/509 474/29/509
f 8/559/510 473/546/510 482/25/510
f 467/551/511 466/547/511 5/27/511 6/2/511
f 460/552/512 459/549/512 474/29/512 475/6/512
